<?xml version="1.0" standalone="no"?>
<!DOCTYPE svg PUBLIC "-//W3C//DTD SVG 20010904//EN"
 "http://www.w3.org/TR/2001/REC-SVG-20010904/DTD/svg10.dtd">
<svg version="1.0" xmlns="http://www.w3.org/2000/svg"
 width="500.000000pt" height="500.000000pt" viewBox="0 0 500.000000 500.000000"
 preserveAspectRatio="xMidYMid meet">

<g transform="translate(0.000000,500.000000) scale(0.100000,-0.100000)"
fill="#000000" stroke="none">
<path d="M890 3940 l0 -580 -385 0 -385 0 0 -570 0 -570 385 0 385 0 0 -360 0
-360 570 0 570 0 0 360 0 360 385 0 385 0 0 570 0 570 -382 2 -383 3 0 200 0
200 383 3 382 2 0 375 0 375 -955 0 -955 0 0 -580z"/>
<path d="M3205 4507 c-3 -7 -4 -685 -3 -1507 l3 -1495 763 0 764 0 -1 530 c0
292 -1 536 -1 543 0 9 -45 12 -190 12 l-190 0 -2 963 -3 962 -568 3 c-454 2
-569 0 -572 -11z"/>
<path d="M350 1155 l0 -155 -100 0 -100 0 0 -145 0 -145 100 0 99 0 3 -102 3
-103 145 0 145 0 3 103 3 102 99 0 100 0 0 145 0 145 -99 0 c-111 0 -109 -2
-102 77 l3 43 99 0 99 0 0 95 0 95 -250 0 -250 0 0 -155z"/>
<path d="M962 908 l3 -403 198 -3 197 -2 0 150 0 150 -50 0 -50 0 0 255 0 255
-150 0 -150 0 2 -402z"/>
</g>
</svg>
